<svg width="60" height="93" viewBox="0 0 60 93" fill="none" xmlns="http://www.w3.org/2000/svg">
<path opacity="0.5" d="M59.2033 0.99503L43.5243 56.5386C43.4445 56.7908 43.1257 56.8664 42.9396 56.6899L32.4427 46.7309L40.3087 18.8961C40.3885 18.6439 40.1493 18.417 39.8836 18.4926L10.5452 25.9556L0.101381 16.047C-0.0846408 15.8705 -0.00491742 15.568 0.260829 15.4923L58.7781 0.591626C59.0438 0.541201 59.283 0.768115 59.2033 0.99503Z" fill="#00B37E"/>
<path opacity="0.5" d="M48.2623 77.5614L44.223 91.9326C44.1433 92.1847 43.8244 92.2604 43.6384 92.0839L11.0579 61.1983C10.8719 61.0218 10.9516 60.7193 11.2173 60.6436L26.3649 56.7861L48.2623 77.5614Z" fill="#00B37E"/>
<path d="M41.7428 28.1863L34.4737 70.1441L14.2382 38.8277L41.3498 27.5782C41.5954 27.4642 41.8164 27.8062 41.7428 28.1863Z" fill="#00B37E"/>
</svg>
